<svg xmlns="http://www.w3.org/2000/svg" viewBox="0 0 80 30">
  <!-- Sketchy zigzag: bottom-left to top-right -->
  <polyline
    points="0,28 8,26 12,29 16,24 20,27 24,22 27,25 32,20 35,23 40,18 43,21 48,16 51,19 56,14 58,17 62,12 65,15 69,10 72,13 76,8 78,10 80,6"
    fill="none"
    stroke="#ffff00"
    stroke-width="2.5"
    stroke-linejoin="round"
    stroke-linecap="round"
    opacity="0.95"
  />
  <!-- Secondary thinner line for sketchy feel -->
  <polyline
    points="2,30 9,24 14,27 18,22 22,25 26,20 30,23 34,18 38,21 42,16 45,19 50,14 53,17 58,12 60,15 64,10 67,13 71,8 74,11 78,5"
    fill="none"
    stroke="#ff0000"
    stroke-width="1.0"
    stroke-linejoin="round"
    opacity="0.7"
  />
</svg>
